<svg height="500" width="750" xmlns="http://www.w3.org/2000/svg"><defs><linearGradient gradientUnits="userSpaceOnUse" id="a" x1="94.375" x2="125.5"><stop offset="0%" stop-color="#00f"/><stop offset="100%" stop-color="#00f"/></linearGradient><linearGradient gradientUnits="userSpaceOnUse" id="b" x1="156.625" x2="187.75"><stop offset="0%" stop-color="#00f"/><stop offset="56.25%" stop-color="#00f"/><stop offset="56.25%" stop-color="orange"/><stop offset="100%" stop-color="orange"/></linearGradient><linearGradient gradientUnits="userSpaceOnUse" id="X" x1="156.625" x2="187.75"><stop offset="0%" stop-color="#fff"/><stop offset="56.25%" stop-color="#fff"/><stop offset="56.25%"/><stop offset="100%"/></linearGradient><linearGradient gradientUnits="userSpaceOnUse" id="c" x1="218.875" x2="250"><stop offset="0%" stop-color="orange"/><stop offset="50%" stop-color="orange"/><stop offset="50%" stop-color="#006400"/><stop offset="75%" stop-color="#006400"/><stop offset="75%" stop-color="#90ee90"/><stop offset="100%" stop-color="#90ee90"/></linearGradient><linearGradient gradientUnits="userSpaceOnUse" id="Y" x1="218.875" x2="250"><stop offset="0%"/><stop offset="50%"/><stop offset="50%" stop-color="#fff"/><stop offset="75%" stop-color="#fff"/><stop offset="75%"/><stop offset="100%"/></linearGradient><linearGradient gradientUnits="userSpaceOnUse" id="d" x1="250" x2="281.125"><stop offset="0%" stop-color="orange"/><stop offset="43.75%" stop-color="orange"/><stop offset="43.75%" stop-color="#fff"/><stop offset="62.5%" stop-color="#fff"/><stop offset="62.5%" stop-color="orange"/><stop offset="100%" stop-color="orange"/></linearGradient><linearGradient gradientUnits="userSpaceOnUse" id="e" x1="281.125" x2="312.25"><stop offset="0%" stop-color="#006400"/><stop offset="100%" stop-color="#006400"/></linearGradient><linearGradient gradientUnits="userSpaceOnUse" id="f" x1="436.75" x2="467.875"><stop offset="0%" stop-color="purple"/><stop offset="100%" stop-color="purple"/></linearGradient><linearGradient gradientUnits="userSpaceOnUse" id="g" x1="467.875" x2="499"><stop offset="0%" stop-color="#006400"/><stop offset="100%" stop-color="#006400"/></linearGradient><linearGradient gradientUnits="userSpaceOnUse" id="h" x1="1" x2="32.125"><stop offset="0%" stop-color="purple"/><stop offset="62.5%" stop-color="purple"/><stop offset="62.5%" stop-color="#00f"/><stop offset="100%" stop-color="#00f"/></linearGradient><linearGradient gradientUnits="userSpaceOnUse" id="i" x1="32.125" x2="63.25"><stop offset="0%" stop-color="#dc143c"/><stop offset="100%" stop-color="#dc143c"/></linearGradient><linearGradient gradientUnits="userSpaceOnUse" id="j" x1="63.25" x2="94.375"><stop offset="0%" stop-color="#90ee90"/><stop offset="100%" stop-color="#90ee90"/></linearGradient><linearGradient gradientUnits="userSpaceOnUse" id="k" x1="94.375" x2="125.5"><stop offset="0%" stop-color="#90ee90"/><stop offset="62.5%" stop-color="#90ee90"/><stop offset="62.5%" stop-color="#ff0"/><stop offset="100%" stop-color="#ff0"/></linearGradient><linearGradient gradientUnits="userSpaceOnUse" id="l" x1="187.75" x2="218.875"><stop offset="0%" stop-color="#ff0"/><stop offset="50%" stop-color="#ff0"/><stop offset="50%" stop-color="#00f"/><stop offset="100%" stop-color="#00f"/></linearGradient><linearGradient gradientUnits="userSpaceOnUse" id="Z" x1="187.75" x2="218.875"><stop offset="0%"/><stop offset="50%"/><stop offset="50%" stop-color="#fff"/><stop offset="100%" stop-color="#fff"/></linearGradient><linearGradient gradientUnits="userSpaceOnUse" id="m" x1="218.875" x2="250"><stop offset="0%" stop-color="sienna"/><stop offset="50%" stop-color="sienna"/><stop offset="50%" stop-color="purple"/><stop offset="100%" stop-color="purple"/></linearGradient><linearGradient gradientUnits="userSpaceOnUse" id="n" x1="250" x2="281.125"><stop offset="0%" stop-color="#006400"/><stop offset="68.75%" stop-color="#006400"/><stop offset="68.75%" stop-color="#ff0"/><stop offset="100%" stop-color="#ff0"/></linearGradient><linearGradient gradientUnits="userSpaceOnUse" id="aa" x1="250" x2="281.125"><stop offset="0%" stop-color="#fff"/><stop offset="68.75%" stop-color="#fff"/><stop offset="68.75%"/><stop offset="100%"/></linearGradient><linearGradient gradientUnits="userSpaceOnUse" id="o" x1="281.125" x2="312.25"><stop offset="0%" stop-color="#006400"/><stop offset="31.25%" stop-color="#006400"/><stop offset="31.25%" stop-color="purple"/><stop offset="100%" stop-color="purple"/></linearGradient><linearGradient gradientUnits="userSpaceOnUse" id="p" x1="312.25" x2="343.375"><stop offset="0%" stop-color="sienna"/><stop offset="12.5%" stop-color="sienna"/><stop offset="12.5%" stop-color="purple"/><stop offset="68.75%" stop-color="purple"/><stop offset="68.75%" stop-color="#00f"/><stop offset="100%" stop-color="#00f"/></linearGradient><linearGradient gradientUnits="userSpaceOnUse" id="q" x1="343.375" x2="374.5"><stop offset="0%" stop-color="sienna"/><stop offset="100%" stop-color="sienna"/></linearGradient><linearGradient gradientUnits="userSpaceOnUse" id="r" x1="374.5" x2="405.625"><stop offset="0%" stop-color="#006400"/><stop offset="50%" stop-color="#006400"/><stop offset="50%" stop-color="#00f"/><stop offset="56.25%" stop-color="#00f"/><stop offset="56.25%" stop-color="#fff"/><stop offset="75%" stop-color="#fff"/><stop offset="75%" stop-color="sienna"/><stop offset="81.25%" stop-color="sienna"/><stop offset="81.25%" stop-color="#006400"/><stop offset="100%" stop-color="#006400"/></linearGradient><linearGradient gradientUnits="userSpaceOnUse" id="ab" x1="374.5" x2="405.625"><stop offset="0%" stop-color="#fff"/><stop offset="56.25%" stop-color="#fff"/><stop offset="56.25%"/><stop offset="75%"/><stop offset="75%" stop-color="#fff"/><stop offset="100%" stop-color="#fff"/></linearGradient><linearGradient gradientUnits="userSpaceOnUse" id="s" x1="405.625" x2="436.75"><stop offset="0%"/><stop offset="75%"/><stop offset="75%" stop-color="#00f"/><stop offset="100%" stop-color="#00f"/></linearGradient><linearGradient gradientUnits="userSpaceOnUse" id="t" x1="436.75" x2="467.875"><stop offset="0%"/><stop offset="100%"/></linearGradient><linearGradient gradientUnits="userSpaceOnUse" id="u" x1="467.875" x2="499"><stop offset="0%" stop-color="#00f"/><stop offset="100%" stop-color="#00f"/></linearGradient><linearGradient gradientUnits="userSpaceOnUse" id="v" x1="1" x2="32.125"><stop offset="0%" stop-color="#00f"/><stop offset="43.75%" stop-color="#00f"/><stop offset="43.75%" stop-color="orchid"/><stop offset="100%" stop-color="orchid"/></linearGradient><linearGradient gradientUnits="userSpaceOnUse" id="ac" x1="1" x2="32.125"><stop offset="0%" stop-color="#fff"/><stop offset="43.75%" stop-color="#fff"/><stop offset="43.75%"/><stop offset="100%"/></linearGradient><linearGradient gradientUnits="userSpaceOnUse" id="w" x1="250" x2="281.125"><stop offset="0%" stop-color="#0ff"/><stop offset="100%" stop-color="#0ff"/></linearGradient><linearGradient gradientUnits="userSpaceOnUse" id="x" x1="281.125" x2="312.25"><stop offset="0%" stop-color="orchid"/><stop offset="100%" stop-color="orchid"/></linearGradient><linearGradient gradientUnits="userSpaceOnUse" id="y" x1="374.5" x2="405.625"><stop offset="0%" stop-color="#00f"/><stop offset="37.5%" stop-color="#00f"/><stop offset="37.5%"/><stop offset="50%"/><stop offset="50%" stop-color="#00f"/><stop offset="100%" stop-color="#00f"/></linearGradient><linearGradient gradientUnits="userSpaceOnUse" id="z" x1="405.625" x2="436.75"><stop offset="0%" stop-color="#00f"/><stop offset="18.75%" stop-color="#00f"/><stop offset="18.75%" stop-color="#90ee90"/><stop offset="87.5%" stop-color="#90ee90"/><stop offset="87.5%" stop-color="#00f"/><stop offset="100%" stop-color="#00f"/></linearGradient><linearGradient gradientUnits="userSpaceOnUse" id="ad" x1="405.625" x2="436.75"><stop offset="0%" stop-color="#fff"/><stop offset="18.75%" stop-color="#fff"/><stop offset="18.75%"/><stop offset="87.5%"/><stop offset="87.5%" stop-color="#fff"/><stop offset="100%" stop-color="#fff"/></linearGradient><linearGradient gradientUnits="userSpaceOnUse" id="A" x1="436.75" x2="467.875"><stop offset="0%" stop-color="orchid"/><stop offset="50%" stop-color="orchid"/><stop offset="50%" stop-color="salmon"/><stop offset="100%" stop-color="salmon"/></linearGradient><linearGradient gradientUnits="userSpaceOnUse" id="B" x1="467.875" x2="499"><stop offset="0%" stop-color="salmon"/><stop offset="87.5%" stop-color="salmon"/><stop offset="87.5%" stop-color="#fff"/><stop offset="93.75%" stop-color="#fff"/><stop offset="93.75%" stop-color="salmon"/><stop offset="100%" stop-color="salmon"/></linearGradient><linearGradient gradientUnits="userSpaceOnUse" id="C" x1="1" x2="32.125"><stop offset="0%" stop-color="#dc143c"/><stop offset="100%" stop-color="#dc143c"/></linearGradient><linearGradient gradientUnits="userSpaceOnUse" id="D" x1="32.125" x2="63.25"><stop offset="0%" stop-color="#dc143c"/><stop offset="75%" stop-color="#dc143c"/><stop offset="75%" stop-color="salmon"/><stop offset="93.75%" stop-color="salmon"/><stop offset="93.75%" stop-color="#dc143c"/><stop offset="100%" stop-color="#dc143c"/></linearGradient><linearGradient gradientUnits="userSpaceOnUse" id="E" x1="63.25" x2="94.375"><stop offset="0%" stop-color="orchid"/><stop offset="100%" stop-color="orchid"/></linearGradient><linearGradient gradientUnits="userSpaceOnUse" id="F" x1="125.5" x2="156.625"><stop offset="0%" stop-color="salmon"/><stop offset="100%" stop-color="salmon"/></linearGradient><linearGradient gradientUnits="userSpaceOnUse" id="G" x1="405.625" x2="436.75"><stop offset="0%" stop-color="salmon"/><stop offset="75%" stop-color="salmon"/><stop offset="75%" stop-color="orchid"/><stop offset="100%" stop-color="orchid"/></linearGradient><linearGradient gradientUnits="userSpaceOnUse" id="H" x1="436.75" x2="467.875"><stop offset="0%" stop-color="salmon"/><stop offset="100%" stop-color="salmon"/></linearGradient><linearGradient gradientUnits="userSpaceOnUse" id="I" x1="1" x2="32.125"><stop offset="0%" stop-color="#dc143c"/><stop offset="100%" stop-color="#dc143c"/></linearGradient><linearGradient gradientUnits="userSpaceOnUse" id="J" x1="156.625" x2="187.75"><stop offset="0%" stop-color="#90ee90"/><stop offset="100%" stop-color="#90ee90"/></linearGradient><linearGradient gradientUnits="userSpaceOnUse" id="K" x1="187.75" x2="218.875"><stop offset="0%" stop-color="#90ee90"/><stop offset="25%" stop-color="#90ee90"/><stop offset="25%" stop-color="#00f"/><stop offset="62.5%" stop-color="#00f"/><stop offset="62.5%" stop-color="#90ee90"/><stop offset="100%" stop-color="#90ee90"/></linearGradient><linearGradient gradientUnits="userSpaceOnUse" id="ae" x1="187.75" x2="218.875"><stop offset="0%"/><stop offset="25%"/><stop offset="25%" stop-color="#fff"/><stop offset="62.5%" stop-color="#fff"/><stop offset="62.5%"/><stop offset="100%"/></linearGradient><linearGradient gradientUnits="userSpaceOnUse" id="L" x1="218.875" x2="250"><stop offset="0%" stop-color="#dc143c"/><stop offset="12.5%" stop-color="#dc143c"/><stop offset="12.5%"/><stop offset="100%"/></linearGradient><linearGradient gradientUnits="userSpaceOnUse" id="af" x1="218.875" x2="250"><stop offset="0%"/><stop offset="12.5%"/><stop offset="12.5%" stop-color="#fff"/><stop offset="100%" stop-color="#fff"/></linearGradient><linearGradient gradientUnits="userSpaceOnUse" id="M" x1="250" x2="281.125"><stop offset="0%" stop-color="#006400"/><stop offset="18.75%" stop-color="#006400"/><stop offset="18.75%" stop-color="orchid"/><stop offset="25%" stop-color="orchid"/><stop offset="25%" stop-color="#006400"/><stop offset="100%" stop-color="#006400"/></linearGradient><linearGradient gradientUnits="userSpaceOnUse" id="ag" x1="250" x2="281.125"><stop offset="0%" stop-color="#fff"/><stop offset="18.75%" stop-color="#fff"/><stop offset="18.75%"/><stop offset="25%"/><stop offset="25%" stop-color="#fff"/><stop offset="100%" stop-color="#fff"/></linearGradient><linearGradient gradientUnits="userSpaceOnUse" id="N" x1="281.125" x2="312.25"><stop offset="0%" stop-color="purple"/><stop offset="18.75%" stop-color="purple"/><stop offset="18.75%" stop-color="sienna"/><stop offset="37.5%" stop-color="sienna"/><stop offset="37.5%" stop-color="#dc143c"/><stop offset="50%" stop-color="#dc143c"/><stop offset="50%" stop-color="sienna"/><stop offset="87.5%" stop-color="sienna"/><stop offset="87.5%" stop-color="purple"/><stop offset="100%" stop-color="purple"/></linearGradient><linearGradient gradientUnits="userSpaceOnUse" id="ah" x1="281.125" x2="312.25"><stop offset="0%" stop-color="#fff"/><stop offset="37.5%" stop-color="#fff"/><stop offset="37.5%"/><stop offset="50%"/><stop offset="50%" stop-color="#fff"/><stop offset="100%" stop-color="#fff"/></linearGradient><linearGradient gradientUnits="userSpaceOnUse" id="O" x1="312.25" x2="343.375"><stop offset="0%" stop-color="purple"/><stop offset="87.5%" stop-color="purple"/><stop offset="87.5%" stop-color="#006400"/><stop offset="100%" stop-color="#006400"/></linearGradient><linearGradient gradientUnits="userSpaceOnUse" id="P" x1="343.375" x2="374.5"><stop offset="0%" stop-color="#90ee90"/><stop offset="18.75%" stop-color="#90ee90"/><stop offset="18.75%"/><stop offset="43.75%"/><stop offset="43.75%" stop-color="#ff0"/><stop offset="75%" stop-color="#ff0"/><stop offset="75%" stop-color="#006400"/><stop offset="100%" stop-color="#006400"/></linearGradient><linearGradient gradientUnits="userSpaceOnUse" id="ai" x1="343.375" x2="374.5"><stop offset="0%"/><stop offset="18.75%"/><stop offset="18.75%" stop-color="#fff"/><stop offset="43.75%" stop-color="#fff"/><stop offset="43.75%"/><stop offset="75%"/><stop offset="75%" stop-color="#fff"/><stop offset="100%" stop-color="#fff"/></linearGradient><linearGradient gradientUnits="userSpaceOnUse" id="Q" x1="374.5" x2="405.625"><stop offset="0%" stop-color="#dc143c"/><stop offset="100%" stop-color="#dc143c"/></linearGradient><linearGradient gradientUnits="userSpaceOnUse" id="R" x1="250" x2="281.125"><stop offset="0%" stop-color="#d3d3d3"/><stop offset="100%" stop-color="#d3d3d3"/></linearGradient><linearGradient gradientUnits="userSpaceOnUse" id="S" x1="1" x2="32.125"><stop offset="0%" stop-color="#a9a9a9"/><stop offset="100%" stop-color="#a9a9a9"/></linearGradient><linearGradient gradientUnits="userSpaceOnUse" id="T" x1="281.125" x2="312.25"><stop offset="0%" stop-color="salmon"/><stop offset="100%" stop-color="salmon"/></linearGradient><linearGradient gradientUnits="userSpaceOnUse" id="U" x1="343.375" x2="374.5"><stop offset="0%"/><stop offset="6.25%"/><stop offset="6.25%" stop-color="#00f"/><stop offset="12.5%" stop-color="#00f"/><stop offset="12.5%" stop-color="orange"/><stop offset="100%" stop-color="orange"/></linearGradient><linearGradient gradientUnits="userSpaceOnUse" id="aj" x1="343.375" x2="374.5"><stop offset="0%" stop-color="#fff"/><stop offset="12.5%" stop-color="#fff"/><stop offset="12.5%"/><stop offset="100%"/></linearGradient><linearGradient gradientUnits="userSpaceOnUse" id="V" x1="436.75" x2="467.875"><stop offset="0%" stop-color="#bdb76b"/><stop offset="6.25%" stop-color="#bdb76b"/><stop offset="6.25%" stop-color="#dc143c"/><stop offset="12.5%" stop-color="#dc143c"/><stop offset="12.5%" stop-color="#00f"/><stop offset="18.75%" stop-color="#00f"/><stop offset="18.75%" stop-color="#dc143c"/><stop offset="43.75%" stop-color="#dc143c"/><stop offset="43.75%" stop-color="orange"/><stop offset="100%" stop-color="orange"/></linearGradient><linearGradient gradientUnits="userSpaceOnUse" id="ak" x1="436.75" x2="467.875"><stop offset="0%"/><stop offset="12.5%"/><stop offset="12.5%" stop-color="#fff"/><stop offset="18.75%" stop-color="#fff"/><stop offset="18.75%"/><stop offset="100%"/></linearGradient><linearGradient gradientUnits="userSpaceOnUse" id="W" x1="467.875" x2="499"><stop offset="0%" stop-color="#dc143c"/><stop offset="93.75%" stop-color="#dc143c"/><stop offset="93.75%" stop-color="pink"/><stop offset="100%" stop-color="pink"/></linearGradient></defs><path fill="#fff" d="M0 0h750v500H0z"/><g stroke="#dcdcdc" stroke-width="2"><path d="M1 1h31.125v31.125H1zm31.125 0H63.25v31.125H32.125zM63.25 1h31.125v31.125H63.25z"/><path fill="url(#a)" d="M94.375 1H125.5v31.125H94.375z"/><path fill="#00f" d="M125.5 1h31.125v31.125H125.5z"/><path fill="url(#b)" d="M156.625 1h31.125v31.125h-31.125z"/><path fill="orange" d="M187.75 1h31.125v31.125H187.75z"/><path fill="url(#c)" d="M218.875 1H250v31.125h-31.125z"/><path fill="url(#d)" d="M250 1h31.125v31.125H250z"/><path fill="url(#e)" d="M281.125 1h31.125v31.125h-31.125z"/><path fill="#006400" d="M312.25 1h31.125v31.125H312.25zm31.125 0H374.5v31.125h-31.125zM374.5 1h31.125v31.125H374.5zm31.125 0h31.125v31.125h-31.125z"/><path fill="url(#f)" d="M436.75 1h31.125v31.125H436.75z"/><path fill="url(#g)" d="M467.875 1H499v31.125h-31.125z"/><path fill="url(#h)" d="M1 32.125h31.125V63.25H1z"/><path fill="url(#i)" d="M32.125 32.125H63.25V63.25H32.125z"/><path fill="url(#j)" d="M63.25 32.125h31.125V63.25H63.25z"/><path fill="url(#k)" d="M94.375 32.125H125.5V63.25H94.375z"/><path fill="#ff0" d="M125.5 32.125h31.125V63.25H125.5zm31.125 0h31.125V63.25h-31.125z"/><path fill="url(#l)" d="M187.75 32.125h31.125V63.25H187.75z"/><path fill="url(#m)" d="M218.875 32.125H250V63.25h-31.125z"/><path fill="url(#n)" d="M250 32.125h31.125V63.25H250z"/><path fill="url(#o)" d="M281.125 32.125h31.125V63.25h-31.125z"/><path fill="url(#p)" d="M312.25 32.125h31.125V63.25H312.25z"/><path fill="url(#q)" d="M343.375 32.125H374.5V63.25h-31.125z"/><path fill="url(#r)" d="M374.5 32.125h31.125V63.25H374.5z"/><path fill="url(#s)" d="M405.625 32.125h31.125V63.25h-31.125z"/><path fill="url(#t)" d="M436.75 32.125h31.125V63.25H436.75z"/><path fill="url(#u)" d="M467.875 32.125H499V63.25h-31.125z"/><path fill="url(#v)" d="M1 63.25h31.125v31.125H1z"/><path fill="orchid" d="M32.125 63.25H63.25v31.125H32.125zm31.125 0h31.125v31.125H63.25zm31.125 0H125.5v31.125H94.375zm31.125 0h31.125v31.125H125.5zm31.125 0h31.125v31.125h-31.125zm31.125 0h31.125v31.125H187.75zm31.125 0H250v31.125h-31.125z"/><path fill="url(#w)" d="M250 63.25h31.125v31.125H250z"/><path fill="url(#x)" d="M281.125 63.25h31.125v31.125h-31.125z"/><path fill="orchid" d="M312.25 63.25h31.125v31.125H312.25zm31.125 0H374.5v31.125h-31.125z"/><path fill="url(#y)" d="M374.5 63.25h31.125v31.125H374.5z"/><path fill="url(#z)" d="M405.625 63.25h31.125v31.125h-31.125z"/><path fill="url(#A)" d="M436.75 63.25h31.125v31.125H436.75z"/><path fill="url(#B)" d="M467.875 63.25H499v31.125h-31.125z"/><path fill="url(#C)" d="M1 94.375h31.125V125.5H1z"/><path fill="url(#D)" d="M32.125 94.375H63.25V125.5H32.125z"/><path fill="url(#E)" d="M63.25 94.375h31.125V125.5H63.25z"/><path fill="orchid" d="M94.375 94.375H125.5V125.5H94.375z"/><path fill="url(#F)" d="M125.5 94.375h31.125V125.5H125.5z"/><path fill="salmon" d="M156.625 94.375h31.125V125.5h-31.125zm31.125 0h31.125V125.5H187.75zm31.125 0H250V125.5h-31.125zm31.125 0h31.125V125.5H250zm31.125 0h31.125V125.5h-31.125zm31.125 0h31.125V125.5H312.25zm31.125 0H374.5V125.5h-31.125zm31.125 0h31.125V125.5H374.5zm31.125 0h31.125V125.5h-31.125zm31.125 0h31.125V125.5H436.75zm31.125 0H499V125.5h-31.125zM1 125.5h31.125v31.125H1zm31.125 0H63.25v31.125H32.125zm31.125 0h31.125v31.125H63.25zm31.125 0H125.5v31.125H94.375zm31.125 0h31.125v31.125H125.5zm31.125 0h31.125v31.125h-31.125zm31.125 0h31.125v31.125H187.75zm31.125 0H250v31.125h-31.125zm31.125 0h31.125v31.125H250zm31.125 0h31.125v31.125h-31.125zm31.125 0h31.125v31.125H312.25zm31.125 0H374.5v31.125h-31.125zm31.125 0h31.125v31.125H374.5z"/><path fill="url(#G)" d="M405.625 125.5h31.125v31.125h-31.125z"/><path fill="url(#H)" d="M436.75 125.5h31.125v31.125H436.75z"/><path fill="salmon" d="M467.875 125.5H499v31.125h-31.125zM1 156.625h31.125v31.125H1zm31.125 0H63.25v31.125H32.125zm31.125 0h31.125v31.125H63.25zm31.125 0H125.5v31.125H94.375zm31.125 0h31.125v31.125H125.5zm31.125 0h31.125v31.125h-31.125zm31.125 0h31.125v31.125H187.75zm31.125 0H250v31.125h-31.125zm31.125 0h31.125v31.125H250zm31.125 0h31.125v31.125h-31.125zm31.125 0h31.125v31.125H312.25zm31.125 0H374.5v31.125h-31.125zm31.125 0h31.125v31.125H374.5zm31.125 0h31.125v31.125h-31.125zm31.125 0h31.125v31.125H436.75zm31.125 0H499v31.125h-31.125zM1 187.75h31.125v31.125H1zm31.125 0H63.25v31.125H32.125zm31.125 0h31.125v31.125H63.25zm31.125 0H125.5v31.125H94.375zm31.125 0h31.125v31.125H125.5zm31.125 0h31.125v31.125h-31.125zm31.125 0h31.125v31.125H187.75zm31.125 0H250v31.125h-31.125zm31.125 0h31.125v31.125H250zm31.125 0h31.125v31.125h-31.125zm31.125 0h31.125v31.125H312.25zm31.125 0H374.5v31.125h-31.125zm31.125 0h31.125v31.125H374.5zm31.125 0h31.125v31.125h-31.125zm31.125 0h31.125v31.125H436.75zm31.125 0H499v31.125h-31.125zM1 218.875h31.125V250H1zm31.125 0H63.25V250H32.125zm31.125 0h31.125V250H63.25zm31.125 0H125.5V250H94.375zm31.125 0h31.125V250H125.5zm31.125 0h31.125V250h-31.125zm31.125 0h31.125V250H187.75zm31.125 0H250V250h-31.125zm31.125 0h31.125V250H250zm31.125 0h31.125V250h-31.125zm31.125 0h31.125V250H312.25zm31.125 0H374.5V250h-31.125zm31.125 0h31.125V250H374.5zm31.125 0h31.125V250h-31.125zm31.125 0h31.125V250H436.75zm31.125 0H499V250h-31.125zM1 250h31.125v31.125H1zm31.125 0H63.25v31.125H32.125zm31.125 0h31.125v31.125H63.25zm31.125 0H125.5v31.125H94.375zm31.125 0h31.125v31.125H125.5zm31.125 0h31.125v31.125h-31.125zm31.125 0h31.125v31.125H187.75zm31.125 0H250v31.125h-31.125zM250 250h31.125v31.125H250zm31.125 0h31.125v31.125h-31.125zm31.125 0h31.125v31.125H312.25zm31.125 0H374.5v31.125h-31.125zm31.125 0h31.125v31.125H374.5zm31.125 0h31.125v31.125h-31.125zm31.125 0h31.125v31.125H436.75zm31.125 0H499v31.125h-31.125zM1 281.125h31.125v31.125H1zm31.125 0H63.25v31.125H32.125zm31.125 0h31.125v31.125H63.25zm31.125 0H125.5v31.125H94.375zm31.125 0h31.125v31.125H125.5zm31.125 0h31.125v31.125h-31.125zm31.125 0h31.125v31.125H187.75zm31.125 0H250v31.125h-31.125zm31.125 0h31.125v31.125H250zm31.125 0h31.125v31.125h-31.125zm31.125 0h31.125v31.125H312.25zm31.125 0H374.5v31.125h-31.125zm31.125 0h31.125v31.125H374.5zm31.125 0h31.125v31.125h-31.125zm31.125 0h31.125v31.125H436.75zm31.125 0H499v31.125h-31.125z"/><path fill="url(#I)" d="M1 312.25h31.125v31.125H1z"/><path fill="#dc143c" d="M32.125 312.25H63.25v31.125H32.125zm31.125 0h31.125v31.125H63.25zm31.125 0H125.5v31.125H94.375zm31.125 0h31.125v31.125H125.5z"/><path fill="url(#J)" d="M156.625 312.25h31.125v31.125h-31.125z"/><path fill="url(#K)" d="M187.75 312.25h31.125v31.125H187.75z"/><path fill="url(#L)" d="M218.875 312.25H250v31.125h-31.125z"/><path fill="url(#M)" d="M250 312.25h31.125v31.125H250z"/><path fill="url(#N)" d="M281.125 312.25h31.125v31.125h-31.125z"/><path fill="url(#O)" d="M312.25 312.25h31.125v31.125H312.25z"/><path fill="url(#P)" d="M343.375 312.25H374.5v31.125h-31.125z"/><path fill="url(#Q)" d="M374.5 312.25h31.125v31.125H374.5z"/><path fill="#dc143c" d="M405.625 312.25h31.125v31.125h-31.125zm31.125 0h31.125v31.125H436.75zm31.125 0H499v31.125h-31.125zM1 343.375h31.125V374.5H1zm31.125 0H63.25V374.5H32.125zm31.125 0h31.125V374.5H63.25zm31.125 0H125.5V374.5H94.375zm31.125 0h31.125V374.5H125.5zm31.125 0h31.125V374.5h-31.125zm31.125 0h31.125V374.5H187.75zm31.125 0H250V374.5h-31.125zm31.125 0h31.125V374.5H250zm31.125 0h31.125V374.5h-31.125zm31.125 0h31.125V374.5H312.25zm31.125 0H374.5V374.5h-31.125zm31.125 0h31.125V374.5H374.5zm31.125 0h31.125V374.5h-31.125zm31.125 0h31.125V374.5H436.75zm31.125 0H499V374.5h-31.125zM1 374.5h31.125v31.125H1zm31.125 0H63.25v31.125H32.125zm31.125 0h31.125v31.125H63.25zm31.125 0H125.5v31.125H94.375zm31.125 0h31.125v31.125H125.5zm31.125 0h31.125v31.125h-31.125zm31.125 0h31.125v31.125H187.75zm31.125 0H250v31.125h-31.125zm31.125 0h31.125v31.125H250zm31.125 0h31.125v31.125h-31.125zm31.125 0h31.125v31.125H312.25zm31.125 0H374.5v31.125h-31.125zm31.125 0h31.125v31.125H374.5zm31.125 0h31.125v31.125h-31.125zm31.125 0h31.125v31.125H436.75zm31.125 0H499v31.125h-31.125zM1 405.625h31.125v31.125H1zm31.125 0H63.25v31.125H32.125zm31.125 0h31.125v31.125H63.25zm31.125 0H125.5v31.125H94.375zm31.125 0h31.125v31.125H125.5zm31.125 0h31.125v31.125h-31.125zm31.125 0h31.125v31.125H187.75zm31.125 0H250v31.125h-31.125z"/><path fill="url(#R)" d="M250 405.625h31.125v31.125H250z"/><path fill="#d3d3d3" d="M281.125 405.625h31.125v31.125h-31.125zm31.125 0h31.125v31.125H312.25zm31.125 0H374.5v31.125h-31.125zm31.125 0h31.125v31.125H374.5zm31.125 0h31.125v31.125h-31.125zm31.125 0h31.125v31.125H436.75zm31.125 0H499v31.125h-31.125z"/><path fill="url(#S)" d="M1 436.75h31.125v31.125H1z"/><path fill="#a9a9a9" d="M32.125 436.75H63.25v31.125H32.125zm31.125 0h31.125v31.125H63.25zm31.125 0H125.5v31.125H94.375zm31.125 0h31.125v31.125H125.5zm31.125 0h31.125v31.125h-31.125zm31.125 0h31.125v31.125H187.75zm31.125 0H250v31.125h-31.125zm31.125 0h31.125v31.125H250zm31.125 0h31.125v31.125h-31.125zm31.125 0h31.125v31.125H312.25zm31.125 0H374.5v31.125h-31.125zm31.125 0h31.125v31.125H374.5zm31.125 0h31.125v31.125h-31.125zm31.125 0h31.125v31.125H436.75zm31.125 0H499v31.125h-31.125zM1 467.875h31.125V499H1zm31.125 0H63.25V499H32.125zm31.125 0h31.125V499H63.25zm31.125 0H125.5V499H94.375zm31.125 0h31.125V499H125.5zm31.125 0h31.125V499h-31.125zm31.125 0h31.125V499H187.75zm31.125 0H250V499h-31.125zm31.125 0h31.125V499H250z"/><path fill="url(#T)" d="M281.125 467.875h31.125V499h-31.125z"/><path fill="salmon" d="M312.25 467.875h31.125V499H312.25z"/><path fill="url(#U)" d="M343.375 467.875H374.5V499h-31.125z"/><path fill="orange" d="M374.5 467.875h31.125V499H374.5zm31.125 0h31.125V499h-31.125z"/><path fill="url(#V)" d="M436.75 467.875h31.125V499H436.75z"/><path fill="url(#W)" d="M467.875 467.875H499V499h-31.125z"/></g><g font-family="'DejaVu Sans', sans-serif" font-size="14.1" text-anchor="middle"><text fill="#fff" x="16.563" y="21.75">00</text><text fill="#fff" x="47.688" y="21.75">01</text><text fill="#fff" x="78.813" y="21.75">02</text><text fill="#fff" x="109.938" y="21.75">03</text><text fill="#fff" x="141.063" y="21.75">04</text><text fill="url(#X)" x="172.188" y="21.75">05</text><text x="203.313" y="21.75">06</text><text fill="url(#Y)" x="234.438" y="21.75">07</text><text x="265.563" y="21.75">08</text><text fill="#fff" x="296.688" y="21.75">09</text><text fill="#fff" x="327.813" y="21.75">0A</text><text fill="#fff" x="358.938" y="21.75">0B</text><text fill="#fff" x="390.063" y="21.75">0C</text><text fill="#fff" x="421.188" y="21.75">0D</text><text fill="#fff" x="452.313" y="21.75">0E</text><text fill="#fff" x="483.438" y="21.75">0F</text><text fill="#fff" x="16.563" y="52.875">10</text><text x="47.688" y="52.875">11</text><text x="78.813" y="52.875">12</text><text x="109.938" y="52.875">13</text><text x="141.063" y="52.875">14</text><text x="172.188" y="52.875">15</text><text fill="url(#Z)" x="203.313" y="52.875">16</text><text fill="#fff" x="234.438" y="52.875">17</text><text fill="url(#aa)" x="265.563" y="52.875">18</text><text fill="#fff" x="296.688" y="52.875">19</text><text fill="#fff" x="327.813" y="52.875">1A</text><text fill="#fff" x="358.938" y="52.875">1B</text><text fill="url(#ab)" x="390.063" y="52.875">1C</text><text fill="#fff" x="421.188" y="52.875">1D</text><text fill="#fff" x="452.313" y="52.875">1E</text><text fill="#fff" x="483.438" y="52.875">1F</text><text fill="url(#ac)" x="16.563" y="84">20</text><text x="47.688" y="84">21</text><text x="78.813" y="84">22</text><text x="109.938" y="84">23</text><text x="141.063" y="84">24</text><text x="172.188" y="84">25</text><text x="203.313" y="84">26</text><text x="234.438" y="84">27</text><text x="265.563" y="84">28</text><text x="296.688" y="84">29</text><text x="327.813" y="84">2A</text><text x="358.938" y="84">2B</text><text fill="#fff" x="390.063" y="84">2C</text><text fill="url(#ad)" x="421.188" y="84">2D</text><text x="452.313" y="84">2E</text><text x="483.438" y="84">2F</text><text x="16.563" y="115.125">30</text><text x="47.688" y="115.125">31</text><text x="78.813" y="115.125">32</text><text x="109.938" y="115.125">33</text><text x="141.063" y="115.125">34</text><text x="172.188" y="115.125">35</text><text x="203.313" y="115.125">36</text><text x="234.438" y="115.125">37</text><text x="265.563" y="115.125">38</text><text x="296.688" y="115.125">39</text><text x="327.813" y="115.125">3A</text><text x="358.938" y="115.125">3B</text><text x="390.063" y="115.125">3C</text><text x="421.188" y="115.125">3D</text><text x="452.313" y="115.125">3E</text><text x="483.438" y="115.125">3F</text><text x="16.563" y="146.25">40</text><text x="47.688" y="146.25">41</text><text x="78.813" y="146.25">42</text><text x="109.938" y="146.25">43</text><text x="141.063" y="146.25">44</text><text x="172.188" y="146.25">45</text><text x="203.313" y="146.25">46</text><text x="234.438" y="146.25">47</text><text x="265.563" y="146.25">48</text><text x="296.688" y="146.25">49</text><text x="327.813" y="146.25">4A</text><text x="358.938" y="146.25">4B</text><text x="390.063" y="146.25">4C</text><text x="421.188" y="146.25">4D</text><text x="452.313" y="146.25">4E</text><text x="483.438" y="146.25">4F</text><text x="16.563" y="177.375">50</text><text x="47.688" y="177.375">51</text><text x="78.813" y="177.375">52</text><text x="109.938" y="177.375">53</text><text x="141.063" y="177.375">54</text><text x="172.188" y="177.375">55</text><text x="203.313" y="177.375">56</text><text x="234.438" y="177.375">57</text><text x="265.563" y="177.375">58</text><text x="296.688" y="177.375">59</text><text x="327.813" y="177.375">5A</text><text x="358.938" y="177.375">5B</text><text x="390.063" y="177.375">5C</text><text x="421.188" y="177.375">5D</text><text x="452.313" y="177.375">5E</text><text x="483.438" y="177.375">5F</text><text x="16.563" y="208.5">60</text><text x="47.688" y="208.5">61</text><text x="78.813" y="208.5">62</text><text x="109.938" y="208.5">63</text><text x="141.063" y="208.5">64</text><text x="172.188" y="208.5">65</text><text x="203.313" y="208.5">66</text><text x="234.438" y="208.5">67</text><text x="265.563" y="208.5">68</text><text x="296.688" y="208.5">69</text><text x="327.813" y="208.5">6A</text><text x="358.938" y="208.5">6B</text><text x="390.063" y="208.5">6C</text><text x="421.188" y="208.5">6D</text><text x="452.313" y="208.5">6E</text><text x="483.438" y="208.5">6F</text><text x="16.563" y="239.625">70</text><text x="47.688" y="239.625">71</text><text x="78.813" y="239.625">72</text><text x="109.938" y="239.625">73</text><text x="141.063" y="239.625">74</text><text x="172.188" y="239.625">75</text><text x="203.313" y="239.625">76</text><text x="234.438" y="239.625">77</text><text x="265.563" y="239.625">78</text><text x="296.688" y="239.625">79</text><text x="327.813" y="239.625">7A</text><text x="358.938" y="239.625">7B</text><text x="390.063" y="239.625">7C</text><text x="421.188" y="239.625">7D</text><text x="452.313" y="239.625">7E</text><text x="483.438" y="239.625">7F</text><text x="16.563" y="270.75">80</text><text x="47.688" y="270.75">81</text><text x="78.813" y="270.75">82</text><text x="109.938" y="270.75">83</text><text x="141.063" y="270.75">84</text><text x="172.188" y="270.75">85</text><text x="203.313" y="270.75">86</text><text x="234.438" y="270.75">87</text><text x="265.563" y="270.75">88</text><text x="296.688" y="270.75">89</text><text x="327.813" y="270.75">8A</text><text x="358.938" y="270.75">8B</text><text x="390.063" y="270.75">8C</text><text x="421.188" y="270.75">8D</text><text x="452.313" y="270.75">8E</text><text x="483.438" y="270.75">8F</text><text x="16.563" y="301.875">90</text><text x="47.688" y="301.875">91</text><text x="78.813" y="301.875">92</text><text x="109.938" y="301.875">93</text><text x="141.063" y="301.875">94</text><text x="172.188" y="301.875">95</text><text x="203.313" y="301.875">96</text><text x="234.438" y="301.875">97</text><text x="265.563" y="301.875">98</text><text x="296.688" y="301.875">99</text><text x="327.813" y="301.875">9A</text><text x="358.938" y="301.875">9B</text><text x="390.063" y="301.875">9C</text><text x="421.188" y="301.875">9D</text><text x="452.313" y="301.875">9E</text><text x="483.438" y="301.875">9F</text><text x="16.563" y="333">A0</text><text x="47.688" y="333">A1</text><text x="78.813" y="333">A2</text><text x="109.938" y="333">A3</text><text x="141.063" y="333">A4</text><text x="172.188" y="333">A5</text><text fill="url(#ae)" x="203.313" y="333">A6</text><text fill="url(#af)" x="234.438" y="333">A7</text><text fill="url(#ag)" x="265.563" y="333">A8</text><text fill="url(#ah)" x="296.688" y="333">A9</text><text fill="#fff" x="327.813" y="333">AA</text><text fill="url(#ai)" x="358.938" y="333">AB</text><text x="390.063" y="333">AC</text><text x="421.188" y="333">AD</text><text x="452.313" y="333">AE</text><text x="483.438" y="333">AF</text><text x="16.563" y="364.125">B0</text><text x="47.688" y="364.125">B1</text><text x="78.813" y="364.125">B2</text><text x="109.938" y="364.125">B3</text><text x="141.063" y="364.125">B4</text><text x="172.188" y="364.125">B5</text><text x="203.313" y="364.125">B6</text><text x="234.438" y="364.125">B7</text><text x="265.563" y="364.125">B8</text><text x="296.688" y="364.125">B9</text><text x="327.813" y="364.125">BA</text><text x="358.938" y="364.125">BB</text><text x="390.063" y="364.125">BC</text><text x="421.188" y="364.125">BD</text><text x="452.313" y="364.125">BE</text><text x="483.438" y="364.125">BF</text><text x="16.563" y="395.25">C0</text><text x="47.688" y="395.25">C1</text><text x="78.813" y="395.25">C2</text><text x="109.938" y="395.25">C3</text><text x="141.063" y="395.25">C4</text><text x="172.188" y="395.25">C5</text><text x="203.313" y="395.25">C6</text><text x="234.438" y="395.25">C7</text><text x="265.563" y="395.25">C8</text><text x="296.688" y="395.25">C9</text><text x="327.813" y="395.25">CA</text><text x="358.938" y="395.25">CB</text><text x="390.063" y="395.25">CC</text><text x="421.188" y="395.25">CD</text><text x="452.313" y="395.25">CE</text><text x="483.438" y="395.25">CF</text><text x="16.563" y="426.375">D0</text><text x="47.688" y="426.375">D1</text><text x="78.813" y="426.375">D2</text><text x="109.938" y="426.375">D3</text><text x="141.063" y="426.375">D4</text><text x="172.188" y="426.375">D5</text><text x="203.313" y="426.375">D6</text><text x="234.438" y="426.375">D7</text><text x="265.563" y="426.375">D8</text><text x="296.688" y="426.375">D9</text><text x="327.813" y="426.375">DA</text><text x="358.938" y="426.375">DB</text><text x="390.063" y="426.375">DC</text><text x="421.188" y="426.375">DD</text><text x="452.313" y="426.375">DE</text><text x="483.438" y="426.375">DF</text><text fill="#fff" x="16.563" y="457.5">E0</text><text fill="#fff" x="47.688" y="457.5">E1</text><text fill="#fff" x="78.813" y="457.5">E2</text><text fill="#fff" x="109.938" y="457.5">E3</text><text fill="#fff" x="141.063" y="457.5">E4</text><text fill="#fff" x="172.188" y="457.5">E5</text><text fill="#fff" x="203.313" y="457.5">E6</text><text fill="#fff" x="234.438" y="457.5">E7</text><text fill="#fff" x="265.563" y="457.5">E8</text><text fill="#fff" x="296.688" y="457.5">E9</text><text fill="#fff" x="327.813" y="457.5">EA</text><text fill="#fff" x="358.938" y="457.5">EB</text><text fill="#fff" x="390.063" y="457.5">EC</text><text fill="#fff" x="421.188" y="457.5">ED</text><text fill="#fff" x="452.313" y="457.5">EE</text><text fill="#fff" x="483.438" y="457.5">EF</text><text fill="#fff" x="16.563" y="488.625">F0</text><text fill="#fff" x="47.688" y="488.625">F1</text><text fill="#fff" x="78.813" y="488.625">F2</text><text fill="#fff" x="109.938" y="488.625">F3</text><text fill="#fff" x="141.063" y="488.625">F4</text><text fill="#fff" x="172.188" y="488.625">F5</text><text fill="#fff" x="203.313" y="488.625">F6</text><text fill="#fff" x="234.438" y="488.625">F7</text><text fill="#fff" x="265.563" y="488.625">F8</text><text x="296.688" y="488.625">F9</text><text x="327.813" y="488.625">FA</text><text fill="url(#aj)" x="358.938" y="488.625">FB</text><text x="390.063" y="488.625">FC</text><text x="421.188" y="488.625">FD</text><text fill="url(#ak)" x="452.313" y="488.625">FE</text><text x="483.438" y="488.625">FF</text></g><g stroke="#dcdcdc" stroke-width="2"><path d="M518 17h25v13h-25z"/><path fill="#00f" d="M518 43.25h25v13h-25z"/><path fill="#90ee90" d="M518 69.5h25v13h-25z"/><path fill="orange" d="M518 95.75h25v13h-25z"/><path fill="#006400" d="M518 138.25h25v13h-25z"/><path fill="purple" d="M518 180.75h25v13h-25z"/><path fill="#dc143c" d="M518 207h25v13h-25z"/><path fill="salmon" d="M518 233.25h25v13h-25z"/><path fill="sienna" d="M518 259.5h25v13h-25z"/><path fill="#ff0" d="M518 302h25v13h-25z"/><path fill="#0ff" d="M518 328.25h25v13h-25z"/><path fill="orchid" d="M518 354.5h25v13h-25z"/><path fill="#a9a9a9" d="M518 380.75h25v13h-25z"/><path fill="#d3d3d3" d="M518 407h25v13h-25z"/><path fill="#fff" d="M518 433.25h25v13h-25z"/></g><g font-family="'DejaVu Sans', sans-serif" font-size="13" xml:lang="en"><text x="553" y="27">Latin script</text><text x="553" y="53.25">Non-Latin European scripts</text><text x="553" y="79.5">African scripts</text><text x="553" y="105.75">Middle Eastern and</text><text x="553" y="122">Southwest Asian scripts</text><text x="553" y="148.25">South and</text><text x="553" y="164.5">Central Asian scripts</text><text x="553" y="190.75">Southeast Asian scripts</text><text x="553" y="217">East Asian scripts</text><text x="553" y="243.25">CJK characters</text><text x="553" y="269.5">Indonesian and</text><text x="553" y="285.75">Oceanic scripts</text><text x="553" y="312">American scripts</text><text x="553" y="338.25">Notational systems</text><text x="553" y="364.5">Symbols</text><text x="553" y="390.75">Private use</text><text x="553" y="417">UTF-16 surrogates</text><text x="553" y="443.25">Unallocated code points</text><text x="528" y="479.5">As of Unicode 10.0</text></g></svg>